<?xml version="1.0" encoding="UTF-8"?>
<svg xmlns="http://www.w3.org/2000/svg" xmlns:xlink="http://www.w3.org/1999/xlink" viewBox="0 0 52.08 60.13">
  <defs>
    <style>
      .cls-1 {
        fill: url(#_未命名的渐变_7-2);
      }

      .cls-2 {
        fill: url(#_未命名的渐变_7);
      }

      .cls-3 {
        fill: url(#_未命名的渐变_319);
      }

      .cls-4 {
        fill: url(#_未命名的渐变_274);
      }

      .cls-5 {
        fill: url(#_未命名的渐变_2);
      }
    </style>
    <linearGradient id="_未命名的渐变_7" data-name="未命名的渐变 7" x1="16.13" y1="22.92" x2="33.81" y2="37.45" gradientTransform="translate(0 61.13) scale(1 -1)" gradientUnits="userSpaceOnUse">
      <stop offset="0" stop-color="#fff"/>
      <stop offset="1" stop-color="#fff"/>
    </linearGradient>
    <linearGradient id="_未命名的渐变_274" data-name="未命名的渐变 274" x1="26.09" y1="0" x2="25.99" y2="60.13" gradientUnits="userSpaceOnUse">
      <stop offset="0" stop-color="#3fbff0" stop-opacity=".2"/>
      <stop offset=".5" stop-color="#00a1e9" stop-opacity=".5"/>
      <stop offset="1" stop-color="#008dd7"/>
    </linearGradient>
    <linearGradient id="_未命名的渐变_2" data-name="未命名的渐变 2" x1="3.21" y1="46.38" x2="48.88" y2="13.76" gradientUnits="userSpaceOnUse">
      <stop offset="0" stop-color="#103d7e"/>
      <stop offset="1" stop-color="#bb52fb"/>
    </linearGradient>
    <linearGradient id="_未命名的渐变_319" data-name="未命名的渐变 319" x1="34.21" y1="22.65" x2="18.89" y2="39.8" gradientUnits="userSpaceOnUse">
      <stop offset="0" stop-color="#231815" stop-opacity=".3"/>
      <stop offset="1" stop-color="#231815" stop-opacity=".5"/>
    </linearGradient>
    <linearGradient id="_未命名的渐变_7-2" data-name="未命名的渐变 7" x1="10.42" y1="27.06" x2="41.67" y2="27.06" gradientTransform="matrix(1,0,0,1,0,0)" xlink:href="#_未命名的渐变_7"/>
  </defs>
  <g id="_图层_1_复制" data-name=" 图层 1_复制">
    <polygon class="cls-2" points="41.67 21.04 41.67 39.09 36.45 42.1 31.25 39.09 31.25 33.07 36.46 30.07 36.46 24.05 26.04 18.01 15.61 24.04 15.62 30.07 20.84 33.07 20.84 39.09 15.63 42.1 10.42 39.09 10.42 21.04 26.04 12.02 41.67 21.04"/>
    <polygon class="cls-4" points="26.04 60.13 0 45.1 0 15.04 26.04 0 52.08 15.03 52.08 45.1 26.04 60.13"/>
  </g>
  <g id="_图层_2" data-name="图层 2">
    <polygon class="cls-5" points="26.04 1.87 50.46 15.97 50.46 44.16 26.05 58.26 1.63 44.17 1.62 15.97 26.04 1.87"/>
    <polygon class="cls-3" points="41.67 22.77 41.67 40.82 36.45 43.83 31.25 40.82 31.25 34.8 36.46 31.79 36.46 25.78 26.04 19.74 15.61 25.77 15.62 31.79 20.84 34.8 20.84 40.82 15.63 43.83 10.42 40.82 10.42 22.77 26.04 13.75 41.67 22.77"/>
    <polygon class="cls-1" points="41.67 21.04 41.67 39.09 36.45 42.1 31.25 39.09 31.25 33.07 36.46 30.07 36.46 24.05 26.04 18.01 15.61 24.04 15.62 30.07 20.84 33.07 20.84 39.09 15.63 42.1 10.42 39.09 10.42 21.04 26.04 12.02 41.67 21.04"/>
  </g>
</svg>